<?xml version="1.0" encoding="utf-8"?>
<!-- Generator: Adobe Illustrator 23.0.4, SVG Export Plug-In . SVG Version: 6.00 Build 0)  -->
<svg version="1.1" id="Layer_1" xmlns="http://www.w3.org/2000/svg" xmlns:xlink="http://www.w3.org/1999/xlink" x="0px" y="0px"
	 viewBox="0 0 800 120" style="enable-background:new 0 0 800 120;" xml:space="preserve">
<style type="text/css">
	.st0{fill:#FFFFFF;}
	.st1{fill:#CC3333;}
</style>
<g>
	<g>
		<g>
			<path class="st0" d="M59,49.5l-1.8-7.3c-1.3-4.6-2.8-5.7-11.7-5.8h-0.2v42.4c0,0.8,0.5,1.1,2.8,1.4l4.5,0.4l0.2,3H28.5l0.2-3
				l4.5-0.4c2.1-0.2,2.8-0.7,2.8-1.5V36.4h-0.2c-8.6,0-10.6,0.6-12,5.2l-2.1,7.9h-4.9L18.2,33h45.4v16.4H59z"/>
		</g>
		<g>
			<path class="st0" d="M91.3,83.7l0.2-3l1.8-0.2c2.3-0.2,2.8-0.7,2.8-1.5V62.5c0-8-2.5-10.2-7.2-10.2c-3.1,0-6.2,1.5-8.1,3V79
				c0,0.8,0.5,1.3,3.1,1.5l2.5,0.2l0.2,3h-19l0.2-3l2.1-0.2c1.9-0.2,2.8-0.6,2.8-1.5V37.8c0-1.2-0.4-1.9-1.1-2.3l-4.9-2.1l0.2-2.2
				l13.8-4v24.6h0.4c4.3-3.5,8.7-5.9,13.1-5.9c2.4,0,5,0.9,6.8,2.7c2.1,2.2,3.1,5.2,3.1,9.2v21.1c0,0.7,0.4,1.2,3.3,1.5l1.9,0.2
				l0.2,3H91.3z"/>
		</g>
		<g>
			<path class="st0" d="M138.1,56c-2.1,0-3.6-1.3-4.6-2.9c-2.3,1.4-5.4,4.1-7.5,8V79c0,0.8,0.5,1.3,3.1,1.5l2.9,0.2l0.2,3h-19.4
				l0.2-3l2.1-0.2c1.9-0.2,2.8-0.6,2.8-1.5V59c0-5.1-0.6-5.8-3.5-6.6l-1.8-0.4l0.1-2.3l13.3-3.6v10.3h0.4c4-6.7,6.9-10.3,10.9-10.3
				c3.3,0,5.3,2.1,5.3,5.2C142.5,53.8,141,56,138.1,56z"/>
		</g>
		<g>
			<path class="st0" d="M163.6,84.9c-11.3,0-18.1-8.6-18.1-19.3c0-10.9,8.7-19.7,19.8-19.7s18.1,8.3,18.1,18.6
				C183.4,75.7,174.9,84.9,163.6,84.9z M170.3,52.2c-1.1-1.2-3.2-2.8-6.2-2.8c-5.5,0-9.7,5.2-9.7,13.8c0,6.6,1.1,12.3,4,15.4
				c1.1,1.1,3.2,2.7,6.3,2.7c5.3,0,9.6-5.3,9.6-13.8C174.4,61.1,173.2,55.1,170.3,52.2z"/>
		</g>
		<g>
			<path class="st0" d="M229.2,83.3l-13.7,1.5V79h-0.4c-4.4,3.5-8.7,5.9-13.2,5.9c-2.3,0-4.9-0.9-6.7-2.7c-2.2-2.2-3.1-5.2-3.1-9.2
				l0.2-21.1c0-1.3-0.6-1.1-3.5-1.5l-1.8-0.2l-0.2-3h13.9l-0.5,21.2c-0.1,7.9,2.5,10.1,7.2,10.1c3.1,0,6.2-1.5,8.1-2.9V51.8
				c0-0.8-0.5-1.2-3.1-1.5l-2.8-0.2l-0.3-3h14.2v30.2c0,1.2,0.3,2.1,1.1,2.3l4.8,1.5L229.2,83.3z"/>
		</g>
		<g>
			<path class="st0" d="M261.1,52.5v0.4c1,1.5,1.9,3.2,1.9,5.8c0,7.7-6.3,13.5-15.1,13.5c-1.6,0-3.4-0.2-4.8-0.6
				c-1.1,0.5-2.9,2-2.9,3.5c0,2.2,2,3.6,5.2,3.6c3.4,0,7-0.2,9.8-0.2c6.7,0,11.9,4.8,11.9,11.1c0,8.5-8.7,15.1-21.5,15.1
				c-8.8,0-14.7-3.7-14.7-9.5c0-4.9,3.5-7.5,7.9-9.2v-0.3c-3.3-0.8-5.6-3.6-5.6-6.5c0-3.3,3-6.6,7-8c0-0.4,0.2-0.4,0.2-0.4
				c-4.1-1.9-7.2-5.3-7.2-11.3c0-7.5,5.8-13.6,15.1-13.6c3.9,0,7,1,10,2.3h11.4l-0.1,5.7L261.1,52.5z M253,86.4c-2.7-0.2-5.7,0-11,0
				c-1.3,0.6-4.1,2.9-4.1,6.5c0,4.9,4.5,8.3,11.4,8.3c6.4,0,10.9-3.6,10.9-8.2C260.2,89.2,258.3,86.8,253,86.4z M252.4,50.8
				c-1.2-1.1-2.6-1.8-4.2-1.8c-4.1,0-7,3.5-7,9.4c0,4,1.1,7.3,3.1,9.2c1.1,1,2.3,1.6,3.7,1.6c1.9,0,3.5-0.6,4.6-1.6
				c1.6-1.5,2.4-4.3,2.4-8.3C255.1,55.6,254.2,52.6,252.4,50.8z"/>
		</g>
		<g>
			<path class="st0" d="M294.3,83.7l0.2-3l1.8-0.2c2.3-0.2,2.8-0.7,2.8-1.5V62.5c0-8-2.5-10.2-7.2-10.2c-3.1,0-6.2,1.5-8.1,3V79
				c0,0.8,0.5,1.3,3.1,1.5l2.5,0.2l0.2,3h-19l0.2-3l2.1-0.2c1.9-0.2,2.8-0.6,2.8-1.5V37.8c0-1.2-0.4-1.9-1.1-2.3l-4.9-2.1l0.2-2.2
				l13.8-4v24.6h0.4c4.3-3.5,8.7-5.9,13.1-5.9c2.4,0,5,0.9,6.8,2.7c2.1,2.2,3.1,5.2,3.1,9.2v21.1c0,0.7,0.4,1.2,3.3,1.5l1.9,0.2
				l0.2,3H294.3z"/>
		</g>
		<g>
			<path class="st0" d="M356.5,63.5c-2,0-4.1-0.2-6.1-0.3v15.7c0,0.8,0.6,1.1,2.9,1.4l4.4,0.4l0.2,3H335l0.2-3l3.2-0.4
				c2-0.2,2.8-0.7,2.8-1.5v-41c0-0.7-0.5-1.1-3-1.4l-3-0.4l-0.2-3h21.8c13.4,0,20.3,6,20.3,13.8C377.1,57.7,367.6,63.5,356.5,63.5z
				 M356,36.4h-5.6v23.2c1.8,0.4,3.6,0.6,5.7,0.6c6.5,0,11.1-4.5,11.1-11.8C367.2,41.1,362.9,36.4,356,36.4z"/>
		</g>
		<g>
			<path class="st0" d="M398.7,84.9c-11.3,0-18.1-8.6-18.1-19.3c0-10.9,8.7-19.7,19.8-19.7c11.1,0,18.1,8.3,18.1,18.6
				C418.4,75.7,410,84.9,398.7,84.9z M405.4,52.2c-1.1-1.2-3.2-2.8-6.2-2.8c-5.5,0-9.7,5.2-9.7,13.8c0,6.6,1.1,12.3,4,15.4
				c1.1,1.1,3.2,2.7,6.3,2.7c5.3,0,9.6-5.3,9.6-13.8C409.4,61.1,408.2,55.1,405.4,52.2z"/>
		</g>
		<g>
			<path class="st0" d="M436.9,84.9c-4.2,0-8.6-0.6-11.7-1.9l-0.4-10.7h4.8l1.9,7.2c1.7,1.1,4,2,6.2,2c3.6,0,7.3-2.3,7.3-6.1
				c0-3.7-4.4-5.2-9-6.9c-5.7-2.2-11-4.5-11-11.7c0-5.8,4.9-11.1,13.7-11.1c3.7,0,6.3,0.6,8.4,1.4l3-1.1l0.5,11.8H446l-1.9-7
				c-1.6-1.1-3.9-1.8-5.9-1.8c-3.6,0-6.2,2.1-6.2,5.1c0,3.6,3.1,4.9,8.6,7c5.6,2.1,11.3,4.6,11.3,11.7
				C451.9,79.4,446.5,84.9,436.9,84.9z"/>
		</g>
		<g>
			<path class="st0" d="M457.5,83.7l0.2-3l2-0.2c1.9-0.2,2.8-0.6,2.8-1.5V59c0-5.1-0.6-5.8-3.5-6.6l-1.7-0.4l0.1-2.3l13.2-3.6v33
				c0,0.8,0.5,1.3,3.1,1.5l2,0.2l0.2,3H457.5z M465.8,39.7c-3.2,0-5.1-2.5-5.1-5.4c0-2.8,1.9-5.3,5.1-5.3c3.2,0,5.1,2.5,5.1,5.3
				C470.9,37.2,469.1,39.7,465.8,39.7z"/>
		</g>
		<g>
			<path class="st0" d="M494.5,84.9c-5.8,0-10.1-3.5-10-11.7l0.5-21.1l-6.4-0.5l0.1-2.7l11-9.6l3.2,0.5l-0.1,7.5h13.2l-0.6,4.5
				h-12.6l-0.5,19.1c-0.2,6.1,2.7,8,6.8,8c2.1,0,4.7-0.7,6.8-1.9l0.3,2.2C503.4,82.6,498.9,84.9,494.5,84.9z"/>
		</g>
		<g>
			<path class="st0" d="M510,83.7l0.2-3l2-0.2c1.9-0.2,2.8-0.6,2.8-1.5V59c0-5.1-0.6-5.8-3.5-6.6l-1.7-0.4l0.1-2.3l13.2-3.6v33
				c0,0.8,0.5,1.3,3.1,1.5l2,0.2l0.2,3H510z M518.4,39.7c-3.2,0-5.1-2.5-5.1-5.4c0-2.8,1.9-5.3,5.1-5.3c3.2,0,5.1,2.5,5.1,5.3
				C523.5,37.2,521.6,39.7,518.4,39.7z"/>
		</g>
		<g>
			<path class="st0" d="M570.5,50.1l-2.2,0.5c-2.3,0.3-3.1,1.5-4.6,5.4l-10.9,28.3h-5.3l-12.3-30.6c-0.9-2-1.6-2.6-3.9-2.9l-1.9-0.6
				l-0.3-3.1h19.3l-0.2,3l-2.4,0.6c-1.5,0.2-2.3,1.1-1.6,3l8.4,22.2l7.3-20.2c1.2-3.2,1.1-4.5-1.3-4.9l-2.5-0.6l-0.2-3h15.1
				L570.5,50.1z"/>
		</g>
		<g>
			<path class="st0" d="M588.6,84.9c-9.6,0-16.6-7.7-16.6-18.2c0-12,8.4-20.7,19.3-20.7c7.8,0,13.2,4.8,13.2,12.4
				c0,1.3-0.2,3.1-0.5,4.5l-23.6-0.3v0.9c0.1,9.1,5,15.1,12,15.1c3.6,0,7.3-1.5,10-4.7l1.7,1C601.3,81.2,595.7,84.9,588.6,84.9z
				 M589.7,49.2c-4.2,0-8.3,3.6-9.1,10.5c0,0,15.6-0.1,15.4-0.1C596.3,53.1,593.7,49.2,589.7,49.2z"/>
		</g>
		<g>
			<path class="st0" d="M670.9,83.7h-41.8l0.2-3l3.2-0.4c2-0.2,2.8-0.7,2.8-1.5v-41c0-0.7-0.5-1.1-3-1.4l-3-0.4l-0.2-3h42v15.9h-4.7
				l-1.9-7.3c-1.4-4.8-2.7-5.2-16.7-5.2h-3.3v19.8h2.1c5.4,0,7-0.2,7.7-2.2l1.9-5.4h3.7l-1.8,18.5h-3.6l-0.7-5.1
				c-0.2-1.8-1-2.3-7.5-2.3h-1.9v20.6h3.1c14.7,0,16.3-0.6,17.9-5.2l1.9-6.7h5.1L670.9,83.7z"/>
		</g>
		<g>
			<path class="st0" d="M715.9,50.1l-2.3,0.5c-2.2,0.3-3.1,1.5-4.6,5.4l-9.6,25.2l-4.4,13c-2.3,7-4.9,10.5-9.7,10.5
				c-3.5,0-5.8-1.9-5.8-4.8c0-2.4,1.4-4.5,4.3-4.5c2.6,0,4.1,1.5,5,3c1.2-0.6,2-2.1,3.3-5.6L695,85v-0.3l-14.4-30.9
				c-1-1.9-1.5-2.5-3.9-2.9l-1.8-0.6l-0.3-3.1h19l-0.2,3l-2.2,0.6c-1.6,0.2-2.4,1.1-1.5,3l9.1,20.8l6.6-18.8
				c1.1-3.3,0.8-4.5-1.8-4.9l-2.4-0.6l-0.2-3h15.4L715.9,50.1z"/>
		</g>
		<g>
			<path class="st0" d="M733.5,84.9c-9.6,0-16.6-7.7-16.6-18.2c0-12,8.4-20.7,19.3-20.7c7.8,0,13.2,4.8,13.2,12.4
				c0,1.3-0.2,3.1-0.5,4.5l-23.6-0.3v0.9c0.1,9.1,5,15.1,12,15.1c3.6,0,7.3-1.5,10-4.7l1.7,1C746.2,81.2,740.6,84.9,733.5,84.9z
				 M734.6,49.2c-4.2,0-8.3,3.6-9.1,10.5c0,0,15.6-0.1,15.4-0.1C741.2,53.1,738.6,49.2,734.6,49.2z"/>
		</g>
		<g>
			<path class="st0" d="M768.3,84.9c-4.2,0-8.6-0.6-11.7-1.9l-0.4-10.7h4.8l1.9,7.2c1.7,1.1,4,2,6.2,2c3.6,0,7.3-2.3,7.3-6.1
				c0-3.7-4.4-5.2-9-6.9c-5.7-2.2-11-4.5-11-11.7c0-5.8,4.9-11.1,13.7-11.1c3.7,0,6.3,0.6,8.4,1.4l3-1.1l0.5,11.8h-4.5l-1.9-7
				c-1.6-1.1-3.9-1.8-5.9-1.8c-3.6,0-6.2,2.1-6.2,5.1c0,3.6,3.1,4.9,8.6,7c5.6,2.1,11.3,4.6,11.3,11.7
				C783.2,79.4,777.9,84.9,768.3,84.9z"/>
		</g>
	</g>
	<path class="st1" d="M465.8,39.7c-3.2,0-5.1-2.5-5.1-5.4c0-2.8,1.9-5.3,5.1-5.3c3.2,0,5.1,2.5,5.1,5.3
		C470.9,37.2,469.1,39.7,465.8,39.7z"/>
	<path class="st1" d="M518.4,39.7c-3.2,0-5.1-2.5-5.1-5.4c0-2.8,1.9-5.3,5.1-5.3c3.2,0,5.1,2.5,5.1,5.3
		C523.5,37.2,521.6,39.7,518.4,39.7z"/>
</g>
</svg>
